<svg xmlns="http://www.w3.org/2000/svg" xmlns:xlink="http://www.w3.org/1999/xlink" width="270.966" height="190.039" viewBox="0 0 270.966 190.039">
  <defs>
    <filter id="Sustracción_3" x="31.326" y="0" width="202.195" height="167.936" filterUnits="userSpaceOnUse">
      <feOffset dy="-8" input="SourceAlpha"/>
      <feGaussianBlur stdDeviation="6" result="blur"/>
      <feFlood flood-color="#52ef8a" flood-opacity="0.49"/>
      <feComposite operator="in" in2="blur"/>
      <feComposite in="SourceGraphic"/>
    </filter>
    <filter id="Unión_1" x="35.826" y="19.592" width="193.315" height="159.268" filterUnits="userSpaceOnUse">
      <feOffset dy="7" input="SourceAlpha"/>
      <feGaussianBlur stdDeviation="4.5" result="blur-2"/>
      <feFlood flood-opacity="0.969"/>
      <feComposite operator="in" in2="blur-2"/>
      <feComposite in="SourceGraphic"/>
    </filter>
    <filter id="O" x="0" y="136.039" width="63.001" height="54" filterUnits="userSpaceOnUse">
      <feOffset dx="3" dy="-4" input="SourceAlpha"/>
      <feGaussianBlur stdDeviation="1.5" result="blur-3"/>
      <feFlood flood-opacity="0.702"/>
      <feComposite operator="in" in2="blur-3"/>
      <feComposite in="SourceGraphic"/>
    </filter>
    <filter id="S" x="56.619" y="136.039" width="64.227" height="54" filterUnits="userSpaceOnUse">
      <feOffset dx="3" dy="-4" input="SourceAlpha"/>
      <feGaussianBlur stdDeviation="1.5" result="blur-4"/>
      <feFlood flood-opacity="0.702"/>
      <feComposite operator="in" in2="blur-4"/>
      <feComposite in="SourceGraphic"/>
    </filter>
    <filter id="C" x="114.464" y="136.039" width="53.775" height="54" filterUnits="userSpaceOnUse">
      <feOffset dx="3" dy="-4" input="SourceAlpha"/>
      <feGaussianBlur stdDeviation="1.5" result="blur-5"/>
      <feFlood flood-opacity="0.702"/>
      <feComposite operator="in" in2="blur-5"/>
      <feComposite in="SourceGraphic"/>
    </filter>
    <filter id="A" x="161.857" y="136.039" width="59.097" height="54" filterUnits="userSpaceOnUse">
      <feOffset dx="3" dy="-4" input="SourceAlpha"/>
      <feGaussianBlur stdDeviation="1.5" result="blur-6"/>
      <feFlood flood-opacity="0.702"/>
      <feComposite operator="in" in2="blur-6"/>
      <feComposite in="SourceGraphic"/>
    </filter>
    <filter id="R" x="214.573" y="136.039" width="56.393" height="54" filterUnits="userSpaceOnUse">
      <feOffset dx="3" dy="-4" input="SourceAlpha"/>
      <feGaussianBlur stdDeviation="1.5" result="blur-7"/>
      <feFlood flood-opacity="0.702"/>
      <feComposite operator="in" in2="blur-7"/>
      <feComposite in="SourceGraphic"/>
    </filter>
  </defs>
  <g id="logo" transform="translate(-522.674 -145)">
    <g transform="matrix(1, 0, 0, 1, 522.67, 145)" filter="url(#Sustracción_3)">
      <path id="Sustracción_3-2" data-name="Sustracción 3" d="M164.269,131.936H1.926A142.583,142.583,0,0,1,1.688,86.7,133.4,133.4,0,0,1,6.53,66.318a122.218,122.218,0,0,1,7.662-18.445A108.437,108.437,0,0,1,24.339,31.8a93.458,93.458,0,0,1,12.3-13.259A79.6,79.6,0,0,1,50.753,8.533a69.347,69.347,0,0,1,15.6-6.327,64.67,64.67,0,0,1,33.494,0,69.347,69.347,0,0,1,15.6,6.327,79.6,79.6,0,0,1,14.115,10.011,93.458,93.458,0,0,1,12.3,13.259A108.438,108.438,0,0,1,152,47.874a122.222,122.222,0,0,1,7.662,18.445A133.414,133.414,0,0,1,164.507,86.7a141.893,141.893,0,0,1,1.688,21.883,141.606,141.606,0,0,1-1.926,23.352Z" transform="translate(49.33 26)" fill="#20cf66"/>
    </g>
    <g transform="matrix(1, 0, 0, 1, 522.67, 145)" filter="url(#Unión_1)">
      <g id="Unión_1-2" data-name="Unión 1" transform="translate(49.33 26.18)" fill="#0a151a" stroke-linecap="round" stroke-linejoin="bevel">
        <path d="M164.387,132.185H133.892L113.2,96.836H54.282L33.594,132.185H1.928A142.419,142.419,0,0,1,0,108.752,137.841,137.841,0,0,1,6.535,66.342,122.947,122.947,0,0,1,14.2,47.834,108.817,108.817,0,0,1,24.357,31.709a93.7,93.7,0,0,1,12.307-13.3A79.635,79.635,0,0,1,50.789,8.359,66.634,66.634,0,0,1,79.2-.083L71.275,67.468a1.98,1.98,0,0,1-.26.778l-9.19,15.7h43.838l-9.19-15.7a2,2,0,0,1-.26-.778L88.3,0a66.811,66.811,0,0,1,27.225,8.359,79.578,79.578,0,0,1,14.126,10.046,93.58,93.58,0,0,1,12.307,13.3,108.831,108.831,0,0,1,10.154,16.125,122.815,122.815,0,0,1,7.667,18.508,137.816,137.816,0,0,1,6.535,42.411,142.457,142.457,0,0,1-1.927,23.431l0,0Zm-40.777,0H43.873l38.848-23.1a2,2,0,0,1,2.045,0l38.845,23.1,0,0Z" stroke="none"/>
        <path d="M 161.8233337402344 129.184814453125 C 162.8133697509766 122.491081237793 163.3146057128906 115.6299743652344 163.3146057128906 108.7524032592773 C 163.3146057128906 94.35497283935547 161.1647796630859 80.39607238769531 156.9247589111328 67.26323699951172 C 154.891845703125 60.96509552001953 152.3756866455078 54.89073944091797 149.4460906982422 49.20876312255859 C 146.5534973144531 43.59776306152344 143.2320098876953 38.32226181030273 139.5739288330078 33.52878570556641 C 135.9288940429688 28.75240516662598 131.9215393066406 24.4199047088623 127.6626586914063 20.65116691589355 C 123.380615234375 16.86004829406738 118.8080444335938 13.60733318328857 114.0717315673828 10.98323822021484 C 106.9147109985352 7.017294406890869 99.41180419921875 4.47076416015625 91.71905517578125 3.391664028167725 L 99.16709899902344 66.91197204589844 L 108.2513732910156 82.43399810791016 L 105.6622085571289 86.94931030273438 L 61.82418441772461 86.94931030273438 L 59.23501586914063 82.43399810791016 L 68.31931304931641 66.91193389892578 L 75.78566741943359 3.236921072006226 C 67.67369079589844 4.213171482086182 59.76980590820313 6.811963558197021 52.24292373657227 10.98321437835693 C 47.50661087036133 13.60788154602051 42.93389892578125 16.86071395874023 38.65196990966797 20.65114402770996 C 34.3906364440918 24.42402458190918 30.38339805603027 28.7567138671875 26.74142265319824 33.52902221679688 C 23.08427810668945 38.32035827636719 19.76254081726074 43.59583282470703 16.86851692199707 49.20876312255859 C 13.94085025787354 54.88773727416992 11.42461204528809 60.96226119995117 9.389850616455078 67.26325988769531 C 5.149850368499756 80.39864349365234 2.999993324279785 94.35759735107422 2.999993324279785 108.7524032592773 C 2.999993324279785 115.6295547485352 3.501391410827637 122.490364074707 4.491904258728027 129.184814453125 L 31.87405204772949 129.184814453125 L 51.69282531738281 95.32109832763672 L 54.2819938659668 93.83640289306641 L 113.2043991088867 93.83640289306641 L 115.7935638427734 95.32109832763672 L 135.6123657226563 129.184814453125 L 161.8233337402344 129.184814453125 M 112.6976547241211 129.184814453125 L 83.74321746826172 111.9695358276367 L 54.78903198242188 129.184814453125 L 112.6976547241211 129.184814453125 M 164.3904266357422 132.1856842041016 L 164.3868103027344 132.184814453125 L 133.8921051025391 132.184814453125 L 113.2043991088867 96.83640289306641 L 54.2819938659668 96.83640289306641 L 33.59430313110352 132.184814453125 L 1.927802801132202 132.184814453125 C 0.6480171680450439 124.5357131958008 -6.667364232271211e-06 116.6517181396484 -6.667364232271211e-06 108.7524032592773 C -6.667364232271211e-06 94.04459381103516 2.198707580566406 79.77509307861328 6.534898281097412 66.34171295166016 C 8.620207786560059 59.88418960571289 11.19961261749268 53.65800094604492 14.20201683044434 47.8340950012207 C 17.17649269104004 42.06509399414063 20.59289741516113 36.6399040222168 24.35670852661133 31.70880889892578 C 28.1178035736084 26.78040504455566 32.25870895385742 22.30471420288086 36.66330337524414 18.40500068664551 C 41.10930252075195 14.46930980682373 45.86130142211914 11.08980941772461 50.78880310058594 8.359190940856934 C 59.81670761108398 3.356095552444458 69.37380218505859 0.5157145261764526 79.19549560546875 -0.08280926942825317 L 71.27461242675781 67.46849822998047 C 71.24221038818359 67.74571228027344 71.15489959716797 68.00669097900391 71.01449584960938 68.24609375 L 61.82418441772461 83.94931030273438 L 105.6622085571289 83.94931030273438 L 96.47190093994141 68.24609375 C 96.3323974609375 68.00669097900391 96.24420928955078 67.74571228027344 96.21179962158203 67.46849822998047 L 88.30080413818359 2.557663663083076e-07 C 97.70489501953125 0.7460954785346985 106.8642044067383 3.559500217437744 115.5258026123047 8.359190940856934 C 120.4559936523438 11.09069061279297 125.2079925537109 14.47109508514404 129.6513061523438 18.40500068664551 C 134.0541076660156 22.30109596252441 138.1950225830078 26.77680969238281 141.9588012695313 31.70880889892578 C 145.7226104736328 36.64080810546875 149.1390228271484 42.06600189208984 152.1126098632813 47.8340950012207 C 155.1177062988281 53.66249847412109 157.6971130371094 59.88959503173828 159.7797088623047 66.34171295166016 C 164.1158905029297 79.77240753173828 166.3146057128906 94.04190826416016 166.3146057128906 108.7524032592773 C 166.3146057128906 116.6544036865234 165.6666107177734 124.5374984741211 164.3877105712891 132.1838989257813 L 164.3904266357422 132.1856842041016 Z M 33.59430313110352 132.1856842041016 L 33.59430313110352 132.184814453125 L 33.59430313110352 132.1856842041016 Z M 123.6132049560547 132.184814453125 L 123.6096115112305 132.184814453125 L 43.87320709228516 132.184814453125 L 82.72080230712891 109.0872116088867 C 83.02949523925781 108.9035949707031 83.38320922851563 108.8064041137695 83.74320983886719 108.8064041137695 C 84.10321044921875 108.8064041137695 84.45690155029297 108.9035949707031 84.76560974121094 109.0872116088867 L 123.6105194091797 132.1829986572266 L 123.6132049560547 132.184814453125 Z" stroke="none" fill="rgba(255,255,255,0.86)"/>
      </g>
    </g>
    <g id="OSCAR" transform="translate(-427.747 -297)">
      <g transform="matrix(1, 0, 0, 1, 950.42, 442)" filter="url(#O)">
        <g id="O-2" data-name="O" transform="translate(1.5 144.54)" fill="#dcdedf">
          <path d="M 35.64989852905273 44.5 L 18.35099983215332 44.5 C 16.83346939086914 44.5 15.35535049438477 43.96514129638672 14.18893051147461 42.99394989013672 L 2.839210033416748 33.53509902954102 C 1.352590084075928 32.2965202331543 0.5000001192092896 30.47650909423828 0.5000001192092896 28.54170036315918 L 0.5000001192092896 16.45919990539551 C 0.5000001192092896 14.52355003356934 1.352540135383606 12.70357990264893 2.839020252227783 11.46595001220703 L 14.18999004364014 2.006809949874878 C 15.35521984100342 1.03508996963501 16.83291053771973 0.5 18.35099983215332 0.5 L 35.64989852905273 0.5 C 37.16714859008789 0.5 38.64488983154297 1.035130023956299 39.81090927124023 2.006809949874878 L 51.16170883178711 11.46580982208252 C 52.64831924438477 12.70425033569336 53.50090026855469 14.52425003051758 53.50090026855469 16.45919990539551 L 53.50090026855469 28.54170036315918 C 53.50090026855469 30.47582054138184 52.64826965332031 32.29586029052734 51.16164016723633 33.53514099121094 L 39.81090927124023 42.99409103393555 C 38.64464950561523 43.96514129638672 37.16685104370117 44.5 35.64989852905273 44.5 Z M 24.99209976196289 9.30370044708252 C 22.17815017700195 9.30370044708252 19.44795036315918 10.30743026733398 17.30442047119141 12.12998008728027 L 15.74583053588867 13.45370006561279 C 13.08677005767822 15.71366024017334 11.56180000305176 19.0108699798584 11.56180000305176 22.5 C 11.56180000305176 25.9891300201416 13.08677005767822 29.28634071350098 15.74569988250732 31.54619026184082 L 17.30450057983398 32.87099075317383 C 19.44840049743652 34.69292068481445 22.17856979370117 35.6963005065918 24.99209976196289 35.6963005065918 L 29.00790023803711 35.6963005065918 C 31.8220100402832 35.6963005065918 34.5525016784668 34.69292068481445 36.69638824462891 32.87099838256836 L 38.25519943237305 31.54619026184082 C 40.91413116455078 29.28634071350098 42.4390983581543 25.9891300201416 42.4390983581543 22.5 C 42.4390983581543 19.0108699798584 40.91413116455078 15.71366024017334 38.25519943237305 13.45380973815918 L 36.69626998901367 12.12979984283447 C 34.55295181274414 10.30743026733398 31.82242965698242 9.30370044708252 29.00790023803711 9.30370044708252 L 24.99209976196289 9.30370044708252 Z" stroke="none"/>
          <path d="M 35.64989852905273 44 C 37.05018997192383 44 38.41437149047852 43.50624847412109 39.49082183837891 42.60998153686523 L 50.84149169921875 33.15108871459961 C 52.21382141113281 32.007080078125 53.00090026855469 30.3270206451416 53.00090026855469 28.54170036315918 L 53.00090026855469 16.45919990539551 C 53.00090026855469 14.67311000823975 52.21392059326172 12.99312973022461 50.84162139892578 11.84992027282715 L 39.49081039428711 2.390919923782349 C 38.41447830200195 1.493970036506653 37.05041122436523 1 35.64989852905273 1 L 18.35099983215332 1 C 16.94971084594727 1 15.58575057983398 1.493890047073364 14.51008033752441 2.390919923782349 L 3.158950090408325 11.85019969940186 C 1.786910176277161 12.99254989624023 1.00000011920929 14.67247009277344 1.00000011920929 16.45919990539551 L 1.00000011920929 28.54170036315918 C 1.00000011920929 30.32765960693359 1.787000179290771 32.00765991210938 3.159310102462769 33.1510009765625 L 14.50886058807373 42.60971069335938 C 15.58563041687012 43.50624847412109 16.95013046264648 44 18.35099983215332 44 L 35.64989852905273 44 M 24.99209976196289 8.80370044708252 L 29.00790023803711 8.80370044708252 C 31.94096946716309 8.80370044708252 34.78652191162109 9.849710464477539 37.01993942260742 11.74870014190674 L 38.57901000976563 13.07283020019531 C 41.34991073608398 15.42784023284912 42.9390983581543 18.86392021179199 42.9390983581543 22.5 C 42.9390983581543 26.13607978820801 41.34991073608398 29.5721607208252 38.57899856567383 31.92717933654785 L 37.02016830444336 33.25201034545898 C 34.78599166870117 35.15066146850586 31.94050979614258 36.1963005065918 29.00790023803711 36.1963005065918 L 24.99209976196289 36.1963005065918 C 22.0600700378418 36.1963005065918 19.21491050720215 35.15066146850586 16.98069953918457 33.25197982788086 L 15.42189025878906 31.92716979980469 C 12.65099048614502 29.5721607208252 11.06180000305176 26.13607978820801 11.06180000305176 22.5 C 11.06180000305176 18.86392021179199 12.65099048614502 15.42784023284912 15.42216014862061 13.07260036468506 L 16.98053932189941 11.74905967712402 C 19.21438026428223 9.849710464477539 22.05961036682129 8.80370044708252 24.99209976196289 8.80370044708252 M 35.64989852905273 45 L 18.35099983215332 45 C 16.71681022644043 45 15.12507057189941 44.42403030395508 13.86900043487549 43.37820053100586 L 2.519100189208984 33.9192008972168 C 0.9181801080703735 32.58538818359375 1.342773430224042e-07 30.62537002563477 1.342773430224042e-07 28.54170036315918 L 1.342773430224042e-07 16.45919990539551 C 1.342773430224042e-07 14.37462997436523 0.9181801080703735 12.41460990905762 2.519100189208984 11.08170032501221 L 13.86989974975586 1.622699975967407 C 15.12469005584717 0.5762900114059448 16.71611022949219 -3.552713678800501e-15 18.35099983215332 -3.552713678800501e-15 L 35.64989852905273 -3.552713678800501e-15 C 37.28388977050781 -3.552713678800501e-15 38.87530899047852 0.5762900114059448 40.13100051879883 1.622699975967407 L 51.4818000793457 11.08170032501221 C 53.08272171020508 12.41536045074463 54.00090026855469 14.37537956237793 54.00090026855469 16.45919990539551 L 54.00090026855469 28.54170036315918 C 54.00090026855469 30.62462043762207 53.08272171020508 32.58464050292969 51.4818000793457 33.9192008972168 L 40.13100051879883 43.37820053100586 C 38.87493133544922 44.42403030395508 37.28350830078125 45 35.64989852905273 45 Z M 24.99209976196289 9.80370044708252 C 22.29668998718262 9.80370044708252 19.68151092529297 10.76513957977295 17.62829971313477 12.51089954376221 L 16.06949996948242 13.83479976654053 C 13.52255058288574 15.99948024749756 12.06180000305176 19.15782928466797 12.06180000305176 22.5 C 12.06180000305176 25.84217071533203 13.52255058288574 29.00052070617676 16.06949996948242 31.16519927978516 L 17.62829971313477 32.4900016784668 C 19.68188095092773 34.23517990112305 22.29706001281738 35.1963005065918 24.99209976196289 35.1963005065918 L 29.00790023803711 35.1963005065918 C 31.70351982116699 35.1963005065918 34.31901931762695 34.23517990112305 36.37260055541992 32.4900016784668 L 37.93140029907227 31.16519927978516 C 40.47835159301758 29.00052070617676 41.9390983581543 25.84217071533203 41.9390983581543 22.5 C 41.9390983581543 19.15782928466797 40.47835159301758 15.99948024749756 37.93140029907227 13.83479976654053 L 36.37260055541992 12.51089954376221 C 34.31938934326172 10.76513957977295 31.70388984680176 9.80370044708252 29.00790023803711 9.80370044708252 L 24.99209976196289 9.80370044708252 Z" stroke="none" fill="#2c807a"/>
        </g>
      </g>
      <g transform="matrix(1, 0, 0, 1, 950.42, 442)" filter="url(#S)">
        <g id="S-2" data-name="S" transform="translate(58.12 144.54)" fill="#dcdedf">
          <path d="M 40.58234786987305 44.49999618530273 C 25.73384857177734 44.49999618530273 4.129677772521973 44.31847381591797 0.6186057925224304 44.28808975219727 C 0.9768766760826111 43.36139678955078 2.121139287948608 41.16840744018555 3.75575852394104 38.75153732299805 C 4.745438575744629 37.28824615478516 5.715078353881836 36.05098724365234 6.559848308563232 35.17350769042969 C 7.805868625640869 33.87925720214844 8.493688583374023 33.6561279296875 8.792798042297363 33.63832855224609 C 9.894318580627441 33.57241821289063 15.36219882965088 33.53900527954102 25.04469871520996 33.53900527954102 C 28.38334846496582 33.53900527954102 32.19142913818359 33.54308700561523 36.36316680908203 33.5511474609375 L 37.13961791992188 33.55264663696289 L 36.81974029541016 32.84515762329102 L 34.07862854003906 26.78262710571289 L 33.94468688964844 26.48639678955078 L 33.61959838867188 26.48862648010254 L 3.412258625030518 26.69584274291992 L 3.412258625030518 18.88639640808105 L 3.348374128341675 7.75297212600708 L 10.00656986236572 0.5002663135528564 L 37.71274185180664 0.5341667532920837 L 43.65253829956055 7.439245223999023 L 16.04457855224609 7.180187225341797 L 15.71757888793945 7.177116870880127 L 15.58370876312256 7.47547721862793 L 11.74001884460449 16.04182624816895 L 11.42103862762451 16.75272750854492 L 12.20019817352295 16.74649620056152 C 16.94338798522949 16.70859718322754 23.7562084197998 16.66342735290527 29.27636909484863 16.66342735290527 C 37.10623168945313 16.66342735290527 38.79949951171875 16.75333976745605 39.09258270263672 16.8094539642334 C 39.15729522705078 16.84758758544922 39.57289886474609 17.14048767089844 40.65372848510742 18.86442756652832 C 41.36238861083984 19.99474716186523 42.1802978515625 21.46124649047852 42.89774703979492 22.88789749145508 L 43.03622817993164 23.16325759887695 L 43.05353164672852 23.16325759887695 L 48.33032989501953 33.48872756958008 L 48.34149932861328 33.51058578491211 L 48.35475921630859 33.53124618530273 C 48.80733871459961 34.23644638061523 50.39935684204102 36.73025512695313 51.88393783569336 39.21228790283203 C 53.86317443847656 42.52132415771484 54.47199630737305 43.83560943603516 54.65343475341797 44.35249710083008 C 53.66547012329102 44.4195671081543 50.42650985717773 44.49997329711914 40.58234786987305 44.49999618530273 Z" stroke="none"/>
          <path d="M 40.58234786987305 44.99999618530273 L 40.58234786987305 43.99999618530273 C 48.81831359863281 43.99997711181641 52.39631652832031 43.94438552856445 53.91235733032227 43.88856506347656 C 53.56709671020508 43.15400314331055 52.84994888305664 41.79463958740234 51.36083984375 39.31199645996094 C 49.90554809570313 36.88575744628906 48.36993789672852 34.48064804077148 47.9339599609375 33.80130767822266 L 47.90744781494141 33.75998687744141 L 47.88509750366211 33.71626663208008 L 42.74754333496094 23.66325759887695 L 42.72800827026367 23.66325759887695 L 42.45105743408203 23.1125373840332 C 40.85992813110352 19.94858169555664 39.39461517333984 17.74604034423828 38.89491271972656 17.28869247436523 C 38.41157913208008 17.24217796325684 36.52147674560547 17.16342735290527 29.27636909484863 17.16342735290527 C 23.75659942626953 17.16342735290527 16.94577789306641 17.20859718322754 12.20418834686279 17.24648666381836 L 10.64587879180908 17.25893783569336 L 11.28382873535156 15.83713722229004 L 15.12751865386963 7.270787239074707 L 15.39526844024658 6.674077033996582 L 16.04926872253418 6.680206775665283 L 42.55400085449219 6.928913116455078 L 37.48305511474609 1.033886432647705 L 10.22605037689209 1.000535607337952 L 3.849491119384766 7.946457386016846 L 3.912238597869873 18.88065719604492 L 3.912258625030518 18.8835277557373 L 3.912258625030518 18.88639640808105 L 3.912258625030518 26.1923999786377 L 33.61616897583008 25.98863792419434 L 34.26634979248047 25.98417663574219 L 34.53421783447266 26.57662773132324 L 37.27532958984375 32.63915634155273 L 37.91510009765625 34.05414581298828 L 36.36220932006836 34.0511474609375 C 32.19136810302734 34.04308700561523 28.38360786437988 34.03900527954102 25.04469871520996 34.03900527954102 C 12.99661827087402 34.03900527954102 9.573168754577637 34.09252548217773 8.822508811950684 34.13743591308594 C 8.313848495483398 34.16772842407227 6.781608581542969 35.20304870605469 4.26524829864502 38.89132690429688 C 2.951281309127808 40.81723403930664 1.913557052612305 42.6805419921875 1.381592869758606 43.79460144042969 C 6.540176868438721 43.83831787109375 26.57026100158691 43.99999618530273 40.58234786987305 43.99999618530273 L 40.58234786987305 44.99999618530273 M 40.58234786987305 44.99999618530273 C 24.27074813842773 44.99999618530273 0.1253985166549683 44.78379821777344 0.1253985166549683 44.78379821777344 C 0.1040471196174622 44.79267120361328 0.08551765978336334 44.79702758789063 0.06974796950817108 44.79702758789063 C -0.7399473190307617 44.7971076965332 5.704330921173096 33.32131958007813 8.763078689575195 33.13920593261719 C 10.05901527404785 33.06167221069336 17.17440223693848 33.03900527954102 25.04470062255859 33.03900527954102 C 28.83115196228027 33.03900527954102 32.79103088378906 33.04424667358398 36.36413955688477 33.0511474609375 L 33.62302780151367 26.98861694335938 L 2.912258625030518 27.19928741455078 L 2.912258625030518 18.88639640808105 L 2.847138404846191 7.53874683380127 L 2.867048501968384 7.537927150726318 L 9.787088394165039 -2.993774387505255e-06 L 37.94240951538086 0.03444700688123703 L 44.75105667114258 7.949576854705811 L 16.03988838195801 7.680167198181152 L 12.19619846343994 16.24651718139648 C 17.41822624206543 16.20479202270508 23.94153785705566 16.16342353820801 29.27636909484863 16.16342353820801 C 34.65961074829102 16.16342353820801 38.83273315429688 16.20550918579102 39.2446174621582 16.33181762695313 C 39.95007705688477 16.54894638061523 41.91147994995117 19.81380653381348 43.34444808959961 22.66325759887695 L 43.35951995849609 22.66325759887695 L 48.77555847167969 33.26119613647461 C 49.6951789855957 34.69414520263672 55.84679794311523 44.33278656005859 55.17631912231445 44.78379821777344 C 54.93524932861328 44.94592666625977 48.73734664916992 44.99997711181641 40.58234786987305 44.99999618530273 Z" stroke="none" fill="#2c807a"/>
        </g>
      </g>
      <g transform="matrix(1, 0, 0, 1, 950.42, 442)" filter="url(#C)">
        <g id="C-2" data-name="C" transform="translate(115.96 144.54)" fill="#dcdedf">
          <path d="M 23.69990539550781 44.49999618530273 C 14.84931564331055 44.49999618530273 8.715925216674805 44.2716178894043 8.109005928039551 44.06002807617188 C 7.931575775146484 43.99600601196289 7.130855560302734 43.49617767333984 4.286185741424561 39.75598907470703 C 2.678368806838989 37.64201354980469 1.110946297645569 35.40413284301758 0.609826385974884 34.68297576904297 L 0.6098256707191467 34.68287658691406 L 0.6096118688583374 34.68257141113281 L 0.5115513205528259 21.88862800598145 L 0.5986756682395935 21.88288688659668 L 0.5950556993484497 21.41113662719727 L 0.5090879797935486 10.23384666442871 C 0.8987712860107422 9.683388710021973 2.360098600387573 7.631871700286865 3.934405565261841 5.583457469940186 C 7.049145698547363 1.530717253684998 7.90915584564209 0.9975672960281372 8.098555564880371 0.9307073354721069 C 8.702435493469238 0.7235773205757141 14.83353614807129 0.4999973177909851 23.68560600280762 0.4999973177909851 C 32.53513717651367 0.4999973177909851 37.12826538085938 0.7363573312759399 37.65090560913086 0.9559673070907593 C 38.13927459716797 1.164217352867126 39.54081726074219 2.595857381820679 41.46392440795898 5.246987342834473 C 42.95299530029297 7.299747943878174 43.83255004882813 8.799914360046387 44.14170837402344 9.497981071472168 L 12.78470611572266 9.561847686767578 L 12.28572559356689 9.562867164611816 L 12.28572559356689 10.06184768676758 L 12.28572559356689 20.57906723022461 L 12.28572559356689 34.71848678588867 L 12.28572559356689 35.21744918823242 L 12.78468608856201 35.21848678588867 L 44.15567779541016 35.28372192382813 C 43.85323333740234 35.99014663696289 42.97393035888672 37.52740859985352 41.47429656982422 39.64082717895508 C 39.54787445068359 42.35570907592773 38.14415740966797 43.82168579101563 37.65514755249023 44.03487777709961 C 37.13092422485352 44.25886917114258 32.54019546508789 44.49999618530273 23.69990539550781 44.49999618530273 Z" stroke="none"/>
          <path d="M 23.69990539550781 43.99999618530273 C 32.18074798583984 43.99999618530273 36.76701354980469 43.77790069580078 37.46920013427734 43.56983184814453 C 37.83055877685547 43.38667678833008 39.08125686645508 42.13260650634766 40.97937393188477 39.47391891479492 C 42.07513427734375 37.9390983581543 42.88832473754883 36.62919235229492 43.3497428894043 35.78205108642578 L 12.78364562988281 35.71848678588867 L 11.78572559356689 35.71640777587891 L 11.78572559356689 34.71848678588867 L 11.78572559356689 20.57906723022461 L 11.78572559356689 10.06184768676758 L 11.78572559356689 9.063877105712891 L 12.7836856842041 9.061847686767578 L 43.3246955871582 8.999642372131348 C 42.8591194152832 8.168848037719727 42.05105209350586 6.89890193939209 40.96918487548828 5.416867256164551 C 39.07324981689453 2.819671392440796 37.82638931274414 1.597965836524963 37.46825790405273 1.422198414802551 C 36.77155685424805 1.21803867816925 32.18210601806641 0.9999973177909851 23.68560600280762 0.9999973177909851 C 15.46680641174316 0.9999973177909851 9.131443023681641 1.2072913646698 8.267745971679688 1.403352737426758 C 8.084405899047852 1.504488110542297 7.202259540557861 2.141702651977539 4.242295742034912 6.003527164459229 C 2.81342625617981 7.86775016784668 1.492473602294922 9.712506294250488 1.010309338569641 10.39140033721924 L 1.095035672187805 21.40729713439941 L 1.102295637130737 22.35079765319824 L 1.015146970748901 22.35653877258301 L 1.1084064245224 34.52408218383789 C 1.670889377593994 35.33137893676758 3.107580661773682 37.37414169311523 4.592995643615723 39.33325576782227 C 7.281106948852539 42.87860107421875 8.105810165405273 43.4881477355957 8.281940460205078 43.58850479125977 C 9.15510082244873 43.7885856628418 15.48953628540039 43.99999618530273 23.69990539550781 43.99999618530273 M 23.69990539550781 44.99999618530273 C 16.35050582885742 44.99999618530273 8.746405601501465 44.82158660888672 7.939515590667725 44.53042602539063 C 6.531495571136475 44.02236557006836 1.13718569278717 36.31993865966797 0.1601456850767136 34.91201782226563 L 0.111465685069561 34.91201782226563 L 0.110955685377121 34.84116744995117 C 0.04356568306684494 34.74418640136719 0.007945681922137737 34.69191741943359 0.007945681922137737 34.69191741943359 L 0.109665684401989 34.69211578369141 L 0.007945681922137737 21.42072677612305 L 0.09506568312644958 21.41498756408691 L 0.007945681922137737 10.08787727355957 L 5.682372830051463e-06 10.08790683746338 C 5.682372830051463e-06 10.08790683746338 0.00281568244099617 10.08414745330811 0.007945681922137737 10.07691764831543 L 0.007945681922137737 10.06662750244141 L 0.01537568215280771 10.06612777709961 C 0.3600156903266907 9.57708740234375 6.425405502319336 0.9911972880363464 7.932085514068604 0.4592273235321045 C 8.738105773925781 0.1744698137044907 16.33853340148926 1.605834995643818e-06 23.68560791015625 1.605834995643818e-06 C 30.46699333190918 1.605834995643818e-06 37.0322151184082 0.1485166549682617 37.84701538085938 0.4960273206233978 C 39.54484558105469 1.220047354698181 45.38578414916992 9.607457160949707 44.71392440795898 9.996817588806152 L 12.78572559356689 10.06184768676758 L 12.78572559356689 20.57906723022461 L 12.78572559356689 34.71848678588867 L 44.72135543823242 34.78489685058594 C 45.39321517944336 35.18292617797852 39.55228424072266 43.75324630737305 37.85496520996094 44.49321746826172 C 37.04038619995117 44.8482666015625 30.47866630554199 44.99999618530273 23.69990539550781 44.99999618530273 Z" stroke="none" fill="#2c807a"/>
        </g>
      </g>
      <g transform="matrix(1, 0, 0, 1, 950.42, 442)" filter="url(#A)">
        <g id="A-2" data-name="A" transform="translate(163.36 144.54)" fill="#dcdedf">
          <path d="M 48.49289703369141 44.5 C 48.47950744628906 44.5 48.46612548828125 44.49956893920898 48.4532356262207 44.4986686706543 L 48.43854522705078 44.49766159057617 L 48.42383575439453 44.49750900268555 L 37.72622680664063 44.38763046264648 C 37.04515075683594 44.35910797119141 36.58864974975586 44.25359725952148 36.24690628051758 44.04579925537109 C 35.90343475341797 43.83721923828125 35.616455078125 43.48886871337891 35.31617736816406 42.91613006591797 L 35.31252670288086 42.9091682434082 L 35.30865478515625 42.90232849121094 L 30.02862548828125 33.55810928344727 L 29.88508605957031 33.3040885925293 L 29.59331703186035 33.3040885925293 L 21.9656867980957 33.3040885925293 L 21.66910552978516 33.3040885925293 L 21.52690696716309 33.56436157226563 L 16.46034622192383 42.8377685546875 L 16.45598602294922 42.84574127197266 L 16.45192718505859 42.8538703918457 C 16.16825675964355 43.4211311340332 15.88140678405762 43.76358032226563 15.52182674407959 43.96424865722656 C 15.15336418151855 44.16984176635742 14.64759349822998 44.26602172851563 13.88247871398926 44.27585983276367 L 2.016396522521973 44.08856964111328 L 2.001116514205933 44.08832931518555 L 1.985846400260925 44.08901977539063 C 1.975946426391602 44.08946990966797 1.966046452522278 44.08972930908203 1.955976366996765 44.08972930908203 C 1.603686451911926 44.08972930908203 1.158016443252563 43.82941818237305 0.8469763994216919 43.44197845458984 C 0.4916632175445557 42.99937438964844 0.4057449102401733 42.5338249206543 0.6046455502510071 42.13014221191406 L 6.477956295013428 31.27915000915527 L 6.549986362457275 31.14607048034668 L 6.548653602600098 31.13157081604004 L 7.110876560211182 30.11025047302246 L 9.318124771118164 26.03216743469238 L 9.355146408081055 26.03292083740234 L 9.50096607208252 25.76792907714844 L 22.88474655151367 1.446159958839417 C 23.20939636230469 0.8634200096130371 23.91185569763184 0.5 24.71671676635742 0.5 C 25.52175712585449 0.5 26.22433662414551 0.8634200096130371 26.55025672912598 1.448429942131042 L 43.07788467407227 31.09468078613281 C 43.11832809448242 31.16702079772949 43.15200805664063 31.24218940734863 43.17826461791992 31.3186092376709 L 43.1926155090332 31.3603401184082 L 43.21404647827148 31.3989200592041 L 49.46290588378906 42.64559936523438 C 49.69223785400391 43.08769607543945 49.62805938720703 43.58928298950195 49.28642654418945 44.02259826660156 C 49.06120681762695 44.30810928344727 48.74228668212891 44.5 48.49289703369141 44.5 Z M 21.42641639709473 22.73852348327637 L 15.81406688690186 30.08366966247559 C 15.65767669677734 30.28775978088379 15.61855602264404 30.53993988037109 15.70715618133545 30.77499961853027 C 15.87048625946045 31.2103099822998 16.45601654052734 31.45845031738281 16.70017623901367 31.54490089416504 L 16.78114700317383 31.57357025146484 L 16.86705589294434 31.57357025146484 L 33.23122787475586 31.57360076904297 L 33.31501770019531 31.57360076904297 L 33.39422607421875 31.54628944396973 C 33.58478546142578 31.4805793762207 34.21981811523438 31.23068046569824 34.39065551757813 30.7739200592041 C 34.47877502441406 30.54006958007813 34.4396858215332 30.28791046142578 34.28297805786133 30.08325958251953 L 28.67186546325684 22.73852729797363 L 26.09445571899414 14.13831043243408 C 25.96468734741211 13.70541954040527 25.5543155670166 13.42572975158691 25.04898643493652 13.42572975158691 C 24.54382705688477 13.42572975158691 24.13358688354492 13.70541954040527 24.00382614135742 14.13827991485596 L 21.42641639709473 22.73852348327637 Z" stroke="none"/>
          <path d="M 48.49274063110352 43.99999618530273 C 48.54133224487305 43.99801254272461 48.7252082824707 43.92673492431641 48.8937873840332 43.71303176879883 C 49.01932144165039 43.55380249023438 49.20174789428711 43.23501968383789 49.02189636230469 42.88133239746094 L 42.77698516845703 31.64175987243652 L 42.73411560058594 31.56460952758789 L 42.70541763305664 31.48113059997559 C 42.68881607055664 31.43281936645508 42.66738510131836 31.38504028320313 42.64116668701172 31.33815002441406 L 26.11346626281738 1.691779971122742 C 25.87934684753418 1.27154004573822 25.33108711242676 1 24.71671676635742 1 C 24.1033878326416 1 23.55591773986816 1.270794987678528 23.32124519348145 1.690037846565247 L 9.939016342163086 26.00898933410645 L 9.64738655090332 26.53894996643066 L 9.612759590148926 26.53824615478516 L 7.552306175231934 30.34513092041016 L 7.550606250762939 30.3482608795166 L 7.548896312713623 30.35137939453125 L 7.060582637786865 31.23843955993652 L 7.061736583709717 31.25098991394043 L 6.917676448822021 31.51715087890625 L 1.049765110015869 42.35816955566406 C 0.9174848198890686 42.63727951049805 1.077792167663574 42.9307975769043 1.236876368522644 43.12895965576172 C 1.492016434669495 43.44678115844727 1.810976386070251 43.58972930908203 1.955976366996765 43.58972930908203 L 1.963176369667053 43.58953857421875 L 1.993716359138489 43.58815002441406 L 2.024286508560181 43.58863067626953 L 13.88295555114746 43.77580261230469 C 14.54752349853516 43.76674652099609 14.99111461639404 43.68780899047852 15.27816677093506 43.52762985229492 C 15.45757675170898 43.42752075195313 15.70228672027588 43.23503875732422 16.00472640991211 42.63024139404297 L 16.01284599304199 42.61399078369141 L 16.02156639099121 42.59804153442383 L 21.08812713623047 33.32463073730469 L 21.37252616882324 32.8040885925293 L 21.9656867980957 32.8040885925293 L 29.59331703186035 32.8040885925293 L 30.17686653137207 32.8040885925293 L 30.46393585205078 33.31214141845703 L 35.74396514892578 42.6563606262207 L 35.7516975402832 42.67004013061523 L 35.75899505615234 42.6839599609375 C 36.08665466308594 43.30889129638672 36.33041763305664 43.51153945922852 36.50668716430664 43.61857986450195 C 36.76753997802734 43.77719116210938 37.15945434570313 43.86281204223633 37.73916625976563 43.88772964477539 L 48.4289665222168 43.99753189086914 L 48.45918655395508 43.99792861938477 L 48.48776626586914 43.99987030029297 L 48.49274063110352 43.99999618530273 M 20.97366142272949 22.50754356384277 L 23.52488708496094 13.99472045898438 C 23.7165470123291 13.35531997680664 24.32903671264648 12.92572975158691 25.04898643493652 12.92572975158691 C 25.76909637451172 12.92572975158691 26.38170623779297 13.35531044006348 26.57341575622559 13.99477005004883 L 29.12459754943848 22.50751876831055 L 34.67996597290039 29.7792797088623 C 34.9400749206543 30.11897087097168 35.00666809082031 30.5571403503418 34.85896682739258 30.9490795135498 C 34.6182861328125 31.59256935119629 33.86843490600586 31.91165924072266 33.55721664428711 32.01897048950195 L 33.39879608154297 32.07360076904297 L 33.23122787475586 32.07360076904297 L 16.86705589294434 32.07357025146484 L 16.69524574279785 32.07357025146484 L 16.53328704833984 32.01623153686523 C 16.14805603027344 31.87982940673828 15.46762657165527 31.5599193572998 15.23929595947266 30.95134925842285 C 15.09063625335693 30.55697059631348 15.1572961807251 30.11870002746582 15.41677665710449 29.78009986877441 L 20.97366142272949 22.50754356384277 M 48.49289703369141 45 C 48.46785736083984 45 48.44281768798828 44.99914932250977 48.41869735717773 44.99747848510742 L 37.7132453918457 44.88751983642578 C 36.93875503540039 44.85580825805664 36.40645599365234 44.72798919677734 35.98713684082031 44.47301864624023 C 35.56141662597656 44.21450042724609 35.21814727783203 43.80593872070313 34.87334823608398 43.14831161499023 L 29.59331703186035 33.8040885925293 L 21.9656867980957 33.8040885925293 L 16.89912605285645 43.07749938964844 C 16.5677661895752 43.74013137817383 16.21808624267578 44.14828109741211 15.76548671722412 44.40085983276367 C 15.31929683685303 44.64982986450195 14.73812675476074 44.76551055908203 13.88147640228271 44.77590942382813 L 2.008506298065186 44.58850860595703 C 1.991096377372742 44.58929824829102 1.973686456680298 44.58972930908203 1.955976366996765 44.58972930908203 C 1.452376365661621 44.58972930908203 0.8641763925552368 44.26208877563477 0.4570764005184174 43.75498962402344 C -0.02270358800888062 43.1573486328125 -0.1305035948753357 42.48110961914063 0.1608464121818542 41.8996696472168 L 6.038236618041992 31.04113960266113 C 6.03731632232666 31.03112983703613 6.036406517028809 31.02531051635742 6.036406517028809 31.02528953552246 L 6.672856330871582 29.8691291809082 L 9.023506164550781 25.52607917785645 L 9.062906265258789 25.52688026428223 L 22.44668579101563 1.20510995388031 C 22.86080551147461 0.4617699980735779 23.73057556152344 -3.552713678800501e-15 24.71671676635742 -3.552713678800501e-15 C 25.70284652709961 -3.552713678800501e-15 26.57292556762695 0.4617699980735779 26.98704719543457 1.205090045928955 L 43.51460647583008 30.85120964050293 C 43.56957626342773 30.94955062866211 43.61537551879883 31.05209922790527 43.65111541748047 31.15608024597168 L 49.90323638916016 42.40863037109375 C 50.22634506225586 43.02508926391602 50.14266586303711 43.74415969848633 49.6790657043457 44.33216857910156 C 49.3541259765625 44.74409866333008 48.89969635009766 45 48.49289703369141 45 Z M 25.04898643493652 13.92572975158691 C 24.83704566955566 13.92572975158691 24.56156730651855 14.01900005340576 24.4827766418457 14.28184986114502 L 21.90032577514648 22.89888000488281 C 21.88689613342285 22.94371032714844 21.86368560791016 22.98854064941406 21.83130645751953 23.03215980529785 L 16.21136665344238 30.38723945617676 C 16.15975570678711 30.45458984375 16.14753723144531 30.52570915222168 16.17502593994141 30.59864044189453 C 16.27244567871094 30.85828971862793 16.84262657165527 31.06492042541504 16.86705589294434 31.07357025146484 L 33.23122787475586 31.07360076904297 C 33.23702621459961 31.07159996032715 33.82430648803711 30.86086082458496 33.92233657836914 30.5987606048584 C 33.94982528686523 30.52581024169922 33.93760681152344 30.45463943481445 33.8859977722168 30.38723945617676 L 28.26697731018066 23.03215980529785 C 28.23551559448242 22.99127960205078 28.21230697631836 22.94644927978516 28.19794654846191 22.89888000488281 L 25.61550712585449 14.28184986114502 C 25.53670692443848 14.01900005340576 25.2612361907959 13.92572975158691 25.04898643493652 13.92572975158691 Z" stroke="none" fill="#2c807a"/>
        </g>
      </g>
      <g transform="matrix(1, 0, 0, 1, 950.42, 442)" filter="url(#R)">
        <g id="R-2" data-name="R" transform="translate(216.07 144.54)" fill="#dcdedf">
          <path d="M 6.355801105499268 44.5 C 3.126901149749756 44.5 0.500001072883606 41.87269973754883 0.500001072883606 38.6432991027832 L 0.500001072883606 12.51086521148682 L 0.5099210739135742 12.352219581604 C 0.5434210896492004 11.81661987304688 0.769041121006012 11.45209980010986 1.110541105270386 10.90032958984375 C 1.219339489936829 10.72457122802734 1.33181357383728 10.54286098480225 1.448774456977844 10.33691692352295 L 6.062592506408691 2.500323057174683 C 6.219910621643066 2.309361934661865 6.368493556976318 2.110582590103149 6.512431144714355 1.917999982833862 C 7.081161022186279 1.157119989395142 7.572340965270996 0.5 8.396100997924805 0.5 L 37.2140998840332 0.5 C 38.13236236572266 0.5 38.761962890625 1.288159966468811 39.42853164672852 2.122600078582764 C 39.52919387817383 2.248602151870728 39.63303756713867 2.378585815429688 39.73644638061523 2.503459930419922 L 46.12272262573242 12.99320983886719 L 46.1419792175293 13.02484035491943 L 46.16569137573242 13.05329036712646 C 47.13064956665039 14.2112398147583 47.13070297241211 15.76667022705078 46.16579055786133 16.92378044128418 L 46.14141082763672 16.9530200958252 L 46.12173080444336 16.98562049865723 L 38.54193115234375 29.54331970214844 L 38.39178085327148 29.79207992553711 L 38.5335807800293 30.04570007324219 L 45.76535797119141 42.98085784912109 C 45.91581344604492 43.27025985717773 45.89571762084961 43.60018157958984 45.70854949951172 43.91049957275391 C 45.49930953979492 44.25745010375977 45.17555236816406 44.43899917602539 44.96389007568359 44.43902969360352 C 44.95606994628906 44.43902969360352 44.94824981689453 44.43877029418945 44.94045257568359 44.4382209777832 L 44.92396926879883 44.43706893920898 L 44.90745162963867 44.4370002746582 L 35.69796371459961 44.40102767944336 C 34.59980392456055 44.36362838745117 34.16938400268555 44.10786437988281 33.69916152954102 43.21533966064453 L 33.69540023803711 43.20819854736328 L 33.69140243530273 43.20117950439453 L 26.02880096435547 29.73088073730469 L 25.88501167297363 29.47809982299805 L 25.59420204162598 29.47809982299805 L 13.10220146179199 29.47809982299805 C 12.9856014251709 29.47809982299805 12.86855125427246 29.47323989868164 12.75432109832764 29.46364974975586 L 12.21250152587891 29.41818046569824 L 12.21250152587891 29.96190071105957 L 12.21250152587891 38.6432991027832 C 12.21250152587891 41.87269973754883 9.585201263427734 44.5 6.355801105499268 44.5 Z M 12.06760120391846 18.85989952087402 L 12.06760120391846 19.35989952087402 L 12.06760120391846 24.61680030822754 L 12.06760120391846 24.68380928039551 L 12.08525085449219 24.74846076965332 C 12.23641109466553 25.30227088928223 12.82259082794189 25.61989974975586 13.69350147247314 25.61989974975586 C 14.49820137023926 25.61989974975586 15.28170108795166 25.36804962158203 15.68955135345459 24.97826957702637 L 15.70028114318848 24.96801948547363 L 15.71038150787354 24.95714950561523 L 20.32309150695801 19.9929027557373 C 23.29877281188965 19.96543502807617 25.71537590026855 19.93719100952148 27.50850105285645 19.90891075134277 C 31.29573059082031 19.84918975830078 31.34375190734863 19.81991958618164 31.50285148620605 19.72293090820313 L 31.61816024780273 19.65263938903809 L 31.68240165710449 19.53385925292969 L 33.6254997253418 15.94106006622314 L 33.62753295898438 15.93729972839355 L 33.62950134277344 15.93352031707764 L 33.64797210693359 15.89793014526367 C 33.8746223449707 15.46146011352539 34.07041168212891 15.0844202041626 33.76282119750977 14.39585971832275 L 33.75498199462891 14.37831974029541 L 33.74582290649414 14.36143016815186 L 31.62992095947266 10.45993041992188 L 31.56608200073242 10.34222030639648 L 31.45195198059082 10.2721700668335 C 31.28923034667969 10.17228984832764 31.23441123962402 10.13864040374756 26.83725166320801 10.13864040374756 C 21.37168121337891 10.13864040374756 12.68545150756836 10.21376037597656 12.59834098815918 10.21452045440674 L 12.10270118713379 10.21883964538574 L 12.10270118713379 10.71450042724609 L 12.10270118713379 18.85989952087402 L 12.06760120391846 18.85989952087402 Z" stroke="none"/>
          <path d="M 6.355801105499268 44 C 9.309491157531738 44 11.71250152587891 41.59698867797852 11.71250152587891 38.6432991027832 L 11.71250152587891 29.96190071105957 L 11.71250152587891 28.87446022033691 L 12.7961311340332 28.96540069580078 C 12.89652061462402 28.97382926940918 12.99949073791504 28.97809982299805 13.10220146179199 28.97809982299805 L 25.59420204162598 28.97809982299805 L 26.17582130432129 28.97809982299805 L 26.46341133117676 29.48365020751953 L 34.12601089477539 42.95394897460938 L 34.13399124145508 42.96799087524414 L 34.14152145385742 42.9822883605957 C 34.50556564331055 43.67326354980469 34.74284362792969 43.86735916137695 35.70753860473633 43.90106964111328 L 44.9094123840332 43.93701171875 L 44.94244003295898 43.93714141845703 L 44.95966720581055 43.93834686279297 C 45.02162933349609 43.92399978637695 45.17423248291016 43.82830810546875 45.28039932250977 43.65227127075195 C 45.3754768371582 43.4946403503418 45.39028167724609 43.34820175170898 45.32447052001953 43.21687316894531 L 38.09715270996094 30.2896900177002 L 37.81357192993164 29.7824592590332 L 38.11387252807617 29.28494071960449 L 45.69367218017578 16.72723960876465 L 45.7330207824707 16.66205024719238 L 45.78179168701172 16.60355949401855 C 46.599609375 15.62283992767334 46.59952926635742 14.35492038726807 45.78158187866211 13.37339019775391 L 45.73416137695313 13.31647968292236 L 45.69565200805664 13.25321960449219 L 39.32809066772461 2.794207096099854 C 39.22982025146484 2.674936532974243 39.13246917724609 2.553080081939697 39.03787231445313 2.434659957885742 C 38.32480239868164 1.542009949684143 37.84622192382813 1 37.2140998840332 1 L 8.396100997924805 1 C 7.850541114807129 1 7.477081298828125 1.462589979171753 6.912920951843262 2.217350006103516 C 6.773013591766357 2.40453052520752 6.628844261169434 2.597421407699585 6.473789691925049 2.787407398223877 L 1.881852030754089 10.58683776855469 C 1.760864496231079 10.79970932006836 1.646408200263977 10.98461532592773 1.535701036453247 11.16347026824951 C 1.197291135787964 11.71024036407471 1.033521056175232 11.99050998687744 1.0089510679245 12.38342952728271 L 1.000001072883606 12.52653884887695 L 1.000001072883606 38.6432991027832 C 1.000001072883606 41.59698867797852 3.402601003646851 44 6.355801105499268 44 M 11.56760120391846 18.35989952087402 L 11.60270118713379 18.35989952087402 L 11.60270118713379 10.71450042724609 L 11.60270118713379 9.723170280456543 L 12.59399127960205 9.714539527893066 C 12.68111133575439 9.713780403137207 21.36952018737793 9.638640403747559 26.83725166320801 9.638640403747559 C 31.3756103515625 9.638640403747559 31.40113067626953 9.654299736022949 31.71351051330566 9.846030235290527 L 31.94177055358887 9.986129760742188 L 32.06945037841797 10.22157001495361 L 34.18535232543945 14.12306976318359 L 34.20367050170898 14.15684032440186 L 34.21934127807617 14.19192981719971 C 34.62533187866211 15.10074996948242 34.34180068969727 15.6467399597168 34.09176254272461 16.12824058532715 L 34.07329177856445 16.1638298034668 L 34.06936264038086 16.17140960693359 L 34.06529998779297 16.17892074584961 L 32.12220001220703 19.77172088623047 L 31.99372100830078 20.00927925109863 L 31.76311111450195 20.14986038208008 C 31.46416091918945 20.33209991455078 31.43974113464355 20.34697914123535 27.51639175415039 20.40884971618652 C 25.76557922363281 20.43645668029785 23.42123222351074 20.46403503417969 20.54290199279785 20.49088668823242 L 16.0766716003418 25.29748916625977 L 16.05646133422852 25.31924057006836 L 16.03500175476074 25.33975028991699 C 15.43312072753906 25.91494941711426 14.43081092834473 26.11989974975586 13.69350147247314 26.11989974975586 C 12.59632110595703 26.11989974975586 11.81478118896484 25.65642929077148 11.60289096832275 24.88011932373047 L 11.56760120391846 24.75082015991211 L 11.56760120391846 24.61680030822754 L 11.56760120391846 19.35989952087402 L 11.56760120391846 18.35989952087402 M 6.355801105499268 45 C 2.851201057434082 45 1.091308604372898e-06 42.14839935302734 1.091308604372898e-06 38.6432991027832 L 1.091308604372898e-06 12.32100009918213 L 0.01090109162032604 12.32100963592529 C 0.05223109200596809 11.66018009185791 0.3316410779953003 11.208740234375 0.6853910684585571 10.6371898651123 C 0.7924410700798035 10.46424961090088 0.9031310677528381 10.28542041778564 1.016101121902466 10.08629989624023 L 5.652000904083252 2.212199926376343 C 5.810591220855713 2.021820068359375 5.963790893554688 1.816869974136353 6.111940860748291 1.618659973144531 C 6.706760883331299 0.8228800296783447 7.321841239929199 -3.552713678800501e-15 8.396100997924805 -3.552713678800501e-15 L 37.2140998840332 -3.552713678800501e-15 C 38.37289047241211 -3.552713678800501e-15 39.10815048217773 0.9204199910163879 39.81919097900391 1.810529947280884 C 39.92658996582031 1.944970011711121 40.03668975830078 2.082779884338379 40.14450073242188 2.212199926376343 L 46.54980087280273 12.73320007324219 C 47.67433166503906 14.0826301574707 47.67436218261719 15.89542961120605 46.54980087280273 17.24399948120117 L 38.97000122070313 29.80170059204102 L 46.20510101318359 42.74280166625977 C 46.43978118896484 43.18785858154297 46.41484069824219 43.70758056640625 46.13671112060547 44.16873168945313 C 45.85887145996094 44.62940979003906 45.38758087158203 44.93896865844727 44.96396255493164 44.93902969360352 C 44.94433212280273 44.93902969360352 44.92491149902344 44.93835830688477 44.90550231933594 44.9370002746582 L 35.68860244750977 44.9010009765625 C 34.4046516418457 44.85850143432617 33.81375122070313 44.50553894042969 33.25680160522461 43.44839859008789 L 25.59420204162598 29.97809982299805 L 13.10220146179199 29.97809982299805 C 12.97170066833496 29.97809982299805 12.84059143066406 29.9726505279541 12.71250152587891 29.96190071105957 L 12.71250152587891 38.6432991027832 C 12.71250152587891 42.14839935302734 9.86090087890625 45 6.355801105499268 45 Z M 12.56760120391846 19.35989952087402 L 12.56760120391846 24.61680030822754 C 12.65356063842773 24.93173027038574 13.07447147369385 25.11989974975586 13.69350147247314 25.11989974975586 C 14.35539150238037 25.11989974975586 15.03414154052734 24.91301918029785 15.34410095214844 24.61680030822754 L 20.10330200195313 19.49489974975586 C 25.1113109588623 19.44915008544922 31.1083812713623 19.3778190612793 31.24260139465332 19.29599952697754 L 33.18569946289063 15.703200340271 L 33.20417022705078 15.66761016845703 C 33.41794204711914 15.25594997406006 33.5154914855957 15.06807994842529 33.30630111694336 14.59980010986328 L 31.19040107727051 10.6983003616333 C 31.12611198425293 10.65884017944336 29.66138076782227 10.63864040374756 26.83725166320801 10.63864040374756 C 21.38961029052734 10.63864040374756 12.68994140625 10.71374034881592 12.60270118713379 10.71450042724609 L 12.60270118713379 19.35989952087402 L 12.56760120391846 19.35989952087402 Z" stroke="none" fill="#2c807a"/>
        </g>
      </g>
    </g>
  </g>
</svg>
