<svg xmlns="http://www.w3.org/2000/svg" width="130" height="130" viewBox="0 0 131.382 191.701">
  <g id="firebase" transform="translate(-1003.656 -1534.906)">
    <path id="Trazado_4" data-name="Trazado 4" d="M4905.773,1583.112c5.88.461,80,143.718,78.241,148.514s-34.8,43.184-37.241,43.186-68.2-33.945-67.024-36.575S4899.893,1582.651,4905.773,1583.112Z" transform="translate(-3876.076 -48.205)" fill="#369257"/>
    <path id="Trazado_6" data-name="Trazado 6" d="M4945.231,1605.844c4.118,1.675,67.573,126.824,65.85,131.71s-63.466,37.257-65.85,37.258-66.628-34.579-65.482-37.258S4941.113,1604.169,4945.231,1605.844Z" transform="translate(-3876.077 -48.205)" fill="#48c474"/>
    <path id="Trazado_5" data-name="Trazado 5" d="M4991.212,1618.22c4.118,1.447,21.248,94.546,19.524,98.767s-63.111,34.824-65.495,34.825-66.64-29.872-65.494-32.187S4987.093,1616.773,4991.212,1618.22Z" transform="translate(-3876.077 -25.205)" fill="#51ec88"/>
  </g>
</svg>
